<?xml version="1.0" encoding="UTF-8"?>
<svg id="Layer_1" data-name="Layer 1" xmlns="http://www.w3.org/2000/svg" viewBox="0 0 500 500">
  <defs>
    <style>
      .cls-1 {
        fill: #cfb07a;
      }

      .cls-1, .cls-2, .cls-3, .cls-4, .cls-5, .cls-6, .cls-7, .cls-8 {
        stroke-width: 0px;
      }

      .cls-2 {
        fill: #dfcaa6;
      }

      .cls-3 {
        fill: none;
      }

      .cls-4 {
        fill: #a36800;
      }

      .cls-5 {
        fill: #ba893b;
      }

      .cls-6 {
        fill: #fff;
      }

      .cls-7 {
        fill: #a86a07;
      }

      .cls-8 {
        fill: #fef9c2;
      }
    </style>
  </defs>
  <circle class="cls-8" cx="250" cy="250" r="250"/>
  <circle class="cls-3" cx="250" cy="250" r="191.93"/>
  <g>
    <g>
      <g>
        <path class="cls-2" d="M229.53,389.39s6.64,11.06,20.65,11.06v-13.64l-20.65,2.58Z"/>
        <path class="cls-5" d="M250.18,390.87c-9.59,0-20.65,0-29.13-4.06-8.48-4.06-15.86-13.28-14.38-22.49-11.8-6.64-19.18-18.81-22.49-31.71s-3.32-26.92-2.95-40.56c-21.39,9.59-46.46,7.74-66.75-3.69,0,0,0-.37.37-.37,16.59-22.49,33.56-44.99,56.05-61.21,22.86-16.23,52.73-24.71,79.28-15.49v179.59Z"/>
        <path class="cls-2" d="M186.39,266.59s-3.69,9.59-5.16,25.44c-21.39,9.59-46.46,7.74-66.75-3.69,0,0,0-.37.37-.37,8.48.37,16.96.37,24.71-2.58,8.11-3.32,14.75-9.22,22.13-14.01,7.38-4.43,16.59-7.74,24.71-4.79Z"/>
        <path class="cls-2" d="M202.98,275.08c13.28,12.17,22.49,28.76,25.44,47.2,1.84,9.22.37,18.81,2.95,26.18,1.11,3.69,3.69,6.27,7.01,7.38,3.32,1.48,7.38,1.84,11.8,1.48v8.11c-4.79-.37-9.96-1.11-14.75-3.32s-8.85-7.01-9.96-12.17c-1.48-4.79-1.11-9.96-1.11-14.38.37-4.43.37-8.85,0-13.28-1.11-16.96-8.85-34.29-21.39-47.2Z"/>
        <polygon class="cls-2" points="250.18 351.78 250.18 342.19 239.86 342.19 250.18 351.78"/>
        <g>
          <path class="cls-2" d="M198.19,286.88c9.96,7.01,16.59,18.44,17.7,30.61-5.9-2.21-11.06-6.27-14.38-11.8-3.69-5.53-4.06-12.54-3.32-18.81Z"/>
          <g>
            <path class="cls-6" d="M210.36,302c0,2.95-2.21,5.16-5.16,5.16s-5.16-2.21-5.16-5.16,2.21-5.16,5.16-5.16,5.16,2.58,5.16,5.16Z"/>
            <circle class="cls-7" cx="204.09" cy="300.15" r="1.84"/>
          </g>
        </g>
      </g>
      <g>
        <path class="cls-2" d="M270.47,389.39s-6.64,11.06-20.65,11.06v-13.64l20.65,2.58Z"/>
        <path class="cls-5" d="M249.82,390.87c9.59,0,20.65,0,29.13-4.06,8.48-4.06,15.86-13.28,14.38-22.49,11.8-6.64,19.18-18.81,22.49-31.71,3.32-12.91,3.32-26.92,2.95-40.56,21.39,9.59,46.46,7.74,66.75-3.69,0,0,0-.37-.37-.37-16.59-22.49-33.56-44.99-56.05-61.21-22.86-16.23-52.73-24.71-79.28-15.49v179.59Z"/>
        <path class="cls-2" d="M313.61,266.59s3.69,9.59,5.16,25.44c21.39,9.59,46.46,7.74,66.75-3.69,0,0,0-.37-.37-.37-8.48.37-16.96.37-24.71-2.58-8.11-3.32-14.75-9.22-22.13-14.01-7.38-4.43-16.59-7.74-24.71-4.79Z"/>
        <path class="cls-2" d="M297.02,275.08c-13.28,12.17-22.49,28.76-25.44,47.2-1.84,9.22-.37,18.81-2.95,26.18-1.11,3.69-3.69,6.27-7.01,7.38-3.32,1.48-7.38,1.84-11.8,1.48v8.11c4.79-.37,9.96-1.11,14.75-3.32s8.85-7.01,9.96-12.17c1.48-4.79,1.11-9.96,1.11-14.38-.37-4.43-.37-8.85,0-13.28,1.48-16.96,8.85-34.29,21.39-47.2Z"/>
        <polygon class="cls-2" points="249.82 351.78 249.82 342.19 260.14 342.19 249.82 351.78"/>
        <g>
          <path class="cls-2" d="M301.81,286.88c-9.96,7.01-16.59,18.44-17.7,30.61,5.9-2.21,11.06-6.27,14.38-11.8,3.69-5.53,4.43-12.54,3.32-18.81Z"/>
          <g>
            <circle class="cls-6" cx="294.44" cy="302" r="5.16"/>
            <circle class="cls-7" cx="295.91" cy="300.15" r="1.84"/>
          </g>
        </g>
      </g>
    </g>
    <g>
      <g>
        <path class="cls-4" d="M241.33,209.07c-10.33-2.21-21.39-1.84-31.71.74-4.79,1.11-9.59,2.58-14.38,4.43-1.84-4.79-4.06-9.22-7.01-13.28-.37-.74-1.11-1.84-1.84-2.58-.37-.37-.74-.74-1.11-1.48-6.64-8.11-15.86-14.75-26.55-18.44-1.48-.37-2.58-.74-4.06-1.11-.74-.37-1.84-.37-2.58-.74-7.01-1.48-13.64-1.84-20.65-.74-5.9.74-11.43,2.95-16.59,5.53-1.11.74-2.21,1.11-3.32,1.84-.37,0-.37.37-.74.37-5.9,3.69-11.06,8.48-15.12,14.01-3.32,4.79-5.9,10.33-7.74,15.86-.37,1.48-.74,2.58-1.11,4.06v.37c-1.48,7.38-1.48,15.12.37,22.49v.37c1.11,4.79,3.32,9.22,5.9,13.64.74,1.11,1.48,2.21,2.21,3.32.74,1.11,1.48,1.84,2.21,2.95,5.16,5.9,11.43,11.06,18.81,14.38,7.38,3.32,15.49,4.79,23.23,3.32,4.79-.74,9.22-2.58,13.28-5.53,1.11-.74,2.21-1.84,3.32-2.95s2.21-2.21,3.32-3.69c5.16-6.64,8.48-14.75,9.96-23.23,1.48-8.48.37-17.7-3.32-25.44-3.69-7.74-10.33-14.75-18.81-18.07,8.85,2.58,16.59,8.85,21.76,16.59,5.16,8.11,7.01,17.7,6.64,27.66-.37,9.59-3.32,19.18-8.48,27.66-2.21,3.32-4.79,6.64-7.74,9.22-.74.74-1.48,1.48-2.58,2.21-.37.37-1.11.74-1.48,1.11-3.69,2.58-8.11,4.79-12.91,5.9-20.65,5.16-42.41-2.58-57.16-16.96-2.58-2.58-4.79-5.16-7.01-8.11-1.11-1.11-1.84-2.58-2.58-3.69-2.95-4.43-5.53-9.59-7.38-14.75-3.69-10.33-4.79-21.02-4.06-31.71,0-1.84.37-3.32.74-5.16.37-1.48.37-3.32.74-4.79,1.48-7.38,4.06-14.38,7.74-21.39,5.16-9.96,12.91-18.07,21.39-25.08.37-.37.74-.74,1.11-.74,1.11-1.11,2.58-1.84,3.69-2.58,7.38-5.16,15.86-8.85,24.71-11.43,10.69-2.95,22.49-4.06,33.56-2.95,4.06.37,8.11,1.11,12.17,2.21,1.48.37,3.32.74,4.79,1.11,15.86,4.79,30.61,13.64,42.78,25.44l.37.37c1.11,1.11,1.84,1.84,2.58,2.95,8.85,11.43,15.86,23.6,20.65,36.51Z"/>
        <g>
          <path class="cls-6" d="M220.31,173.67c-6.64,1.11-12.54,4.06-17.7,7.74-6.64,4.79-11.43,11.8-14.38,19.18-.37-.74-1.11-1.84-1.84-2.58-.37-.37-.74-.74-1.11-1.48,3.32-7.38,8.11-14.01,14.75-18.81,5.16-3.69,11.06-6.64,16.96-8.11l.37.37c1.11,1.48,2.21,2.58,2.95,3.69Z"/>
          <path class="cls-6" d="M174.59,144.53c-5.16,4.06-9.22,9.59-12.17,15.49-2.58,5.53-3.69,12.17-3.69,18.07-1.48-.37-2.58-.74-4.06-1.11,0-6.27,1.48-12.91,4.06-18.44,2.58-5.9,6.27-11.06,11.06-15.12,1.48.37,2.95.74,4.79,1.11Z"/>
          <path class="cls-6" d="M114.85,181.41c-1.11.74-2.21,1.11-3.32,1.84-.37,0-.37.37-.74.37-4.43-3.32-8.48-7.74-11.06-12.54-2.21-4.06-3.69-8.48-4.43-13.28,1.11-1.11,2.58-1.84,3.69-2.58.37,4.79,1.84,9.59,4.06,14.01,2.95,4.79,7.01,9.22,11.8,12.17Z"/>
          <path class="cls-6" d="M87.93,213.49c-.37,1.48-.74,2.58-1.11,4.06h-.74c-2.95,0-6.27-.37-9.22-1.11-4.79-1.48-9.22-3.69-13.28-6.64.37-1.48.37-3.32.74-4.79,3.69,3.69,8.48,6.27,13.28,7.74,3.69.74,7.01,1.11,10.33.74Z"/>
          <path class="cls-6" d="M95.3,257.74c-3.32,2.21-6.64,4.06-10.33,5.53-2.58.74-4.79,1.48-7.38,1.84-1.11-1.11-1.84-2.58-2.58-3.69,2.95-.37,5.9-1.11,8.85-1.84,3.32-1.11,6.64-2.95,9.59-4.79.37.74,1.11,1.84,1.84,2.95Z"/>
          <path class="cls-6" d="M158.73,280.98c-.74.74-1.48,1.48-2.58,2.21-.37.37-1.11.74-1.48,1.11,0-2.95-.37-6.27-1.48-9.22-.37-.74-.37-1.48-.74-2.21,1.11-.74,2.21-1.84,3.32-2.95.74,1.11,1.11,2.58,1.48,3.69.74,2.58,1.11,4.79,1.48,7.38Z"/>
        </g>
      </g>
      <path class="cls-1" d="M209.62,209.81c-4.79,1.11-9.59,2.58-14.38,4.43-1.84-4.79-4.06-9.22-7.01-13.28-.37-.74-1.11-1.84-1.84-2.58-.37-.37-.74-.74-1.11-1.48-6.64-8.11-15.86-14.75-26.55-18.44-1.48-.37-2.58-.74-4.06-1.11-.74-.37-1.84-.37-2.58-.74-7.01-1.48-13.64-1.84-20.65-.74-5.9.74-11.43,2.95-16.59,5.53-1.11.74-2.21,1.11-3.32,1.84-.37,0-.37.37-.74.37-5.9,3.69-11.06,8.48-15.12,14.01-3.32,4.79-5.9,10.33-7.74,15.86-.37,1.48-.74,2.58-1.11,4.06v.37c-1.48,7.38-1.48,15.12.37,22.49v.37c-3.69-8.48-4.79-17.7-3.32-26.55,2.58-15.86,12.54-29.87,26.18-37.98,13.64-8.11,30.24-10.69,46.1-7.74,23.23,4.43,43.51,20.28,53.47,41.3Z"/>
    </g>
    <g>
      <g>
        <path class="cls-4" d="M258.67,209.07c10.33-2.21,21.39-1.84,31.71.74,4.79,1.11,9.59,2.58,14.38,4.43,1.84-4.79,4.06-9.22,7.01-13.28.37-.74,1.11-1.84,1.84-2.58.37-.37.74-.74,1.11-1.48,6.64-8.11,15.86-14.75,26.55-18.44,1.48-.37,2.58-.74,4.06-1.11.74-.37,1.84-.37,2.58-.74,7.01-1.48,13.64-1.84,20.65-.74,5.9.74,11.43,2.95,16.59,5.53,1.11.74,2.21,1.11,3.32,1.84.37,0,.37.37.74.37,5.9,3.69,11.06,8.48,15.12,14.01,3.32,4.79,5.9,10.33,7.74,15.86.37,1.48.74,2.58,1.11,4.06v.37c1.48,7.38,1.48,15.12-.37,22.49v.37c-1.11,4.79-3.32,9.22-5.9,13.64-.74,1.11-1.48,2.21-2.21,3.32-.74,1.11-1.48,1.84-2.21,2.95-5.16,5.9-11.43,11.06-18.81,14.38-7.38,3.32-15.49,4.79-23.23,3.32-4.79-.74-9.22-2.58-13.28-5.53-1.11-.74-2.21-1.84-3.32-2.95s-2.21-2.21-3.32-3.69c-5.16-6.64-8.48-14.75-9.96-23.23-1.48-8.48-.37-17.7,3.32-25.44s10.33-14.75,18.81-18.07c-8.85,2.58-16.59,8.85-21.76,16.59-5.16,8.11-7.01,17.7-6.64,27.66.37,9.59,3.32,19.18,8.48,27.66,2.21,3.32,4.79,6.64,7.74,9.22.74.74,1.48,1.48,2.58,2.21.37.37,1.11.74,1.48,1.11,3.69,2.58,8.11,4.79,12.91,5.9,20.65,5.16,42.41-2.58,57.16-16.96,2.58-2.58,4.79-5.16,7.01-8.11,1.11-1.11,1.84-2.58,2.58-3.69,2.95-4.43,5.53-9.59,7.38-14.75,3.69-10.33,4.79-21.02,4.06-31.71,0-1.84-.37-3.32-.74-5.16-.37-1.48-.37-3.32-.74-4.79-1.48-7.38-4.06-14.38-7.74-21.39-5.16-9.96-12.91-18.07-21.39-25.08-.37-.37-.74-.74-1.11-.74-1.11-1.11-2.58-1.84-3.69-2.58-7.38-5.16-15.86-8.85-24.71-11.43-10.69-2.95-22.49-4.06-33.56-2.95-4.06.37-8.11,1.11-12.17,2.21-1.48.37-3.32.74-4.79,1.11-15.86,4.79-30.61,13.64-42.78,25.44l-.37.37c-1.11,1.11-1.84,1.84-2.58,2.95-8.85,11.43-15.86,23.6-20.65,36.51Z"/>
        <g>
          <path class="cls-6" d="M279.69,173.67c6.64,1.11,12.54,4.06,17.7,7.74,6.64,4.79,11.43,11.8,14.38,19.18.37-.74,1.11-1.84,1.84-2.58.37-.37.74-.74,1.11-1.48-3.32-7.38-8.11-14.01-14.75-18.81-5.16-3.69-11.06-6.64-16.96-8.11l-.37.37c-1.11,1.48-2.21,2.58-2.95,3.69Z"/>
          <path class="cls-6" d="M325.41,144.53c5.16,4.06,9.22,9.59,12.17,15.49,2.58,5.53,3.69,12.17,3.69,18.07,1.48-.37,2.58-.74,4.06-1.11,0-6.27-1.48-12.91-4.06-18.44-2.58-5.9-6.27-11.06-11.06-15.12-1.48.37-2.95.74-4.79,1.11Z"/>
          <path class="cls-6" d="M385.15,181.41c1.11.74,2.21,1.11,3.32,1.84.37,0,.37.37.74.37,4.43-3.32,8.48-7.74,11.06-12.54,2.21-4.06,3.69-8.48,4.43-13.28-1.11-1.11-2.58-1.84-3.69-2.58-.37,4.79-1.84,9.59-4.06,14.01-2.95,4.79-7.01,9.22-11.8,12.17Z"/>
          <path class="cls-6" d="M412.07,213.49c.37,1.48.74,2.58,1.11,4.06h.74c2.95,0,6.27-.37,9.22-1.11,4.79-1.48,9.22-3.69,13.28-6.64-.37-1.48-.37-3.32-.74-4.79-3.69,3.69-8.48,6.27-13.28,7.74-3.69.74-7.01,1.11-10.33.74Z"/>
          <path class="cls-6" d="M404.7,257.74c3.32,2.21,6.64,4.06,10.33,5.53,2.58.74,4.79,1.48,7.38,1.84,1.11-1.11,1.84-2.58,2.58-3.69-2.95-.37-5.9-1.11-8.85-1.84-3.32-1.11-6.64-2.95-9.59-4.79-.37.74-1.11,1.84-1.84,2.95Z"/>
          <path class="cls-6" d="M341.27,280.98c.74.74,1.48,1.48,2.58,2.21.37.37,1.11.74,1.48,1.11,0-2.95.37-6.27,1.48-9.22.37-.74.37-1.48.74-2.21-1.11-.74-2.21-1.84-3.32-2.95-.74,1.11-1.11,2.58-1.48,3.69-.74,2.58-1.11,4.79-1.48,7.38Z"/>
        </g>
      </g>
      <path class="cls-1" d="M290.38,209.81c4.79,1.11,9.59,2.58,14.38,4.43,1.84-4.79,4.06-9.22,7.01-13.28.37-.74,1.11-1.84,1.84-2.58.37-.37.74-.74,1.11-1.48,6.64-8.11,15.86-14.75,26.55-18.44,1.48-.37,2.58-.74,4.06-1.11.74-.37,1.84-.37,2.58-.74,7.01-1.48,13.64-1.84,20.65-.74,5.9.74,11.43,2.95,16.59,5.53,1.11.74,2.21,1.11,3.32,1.84.37,0,.37.37.74.37,5.9,3.69,11.06,8.48,15.12,14.01,3.32,4.79,5.9,10.33,7.74,15.86.37,1.48.74,2.58,1.11,4.06v.37c1.48,7.38,1.48,15.12-.37,22.49v.37c3.69-8.48,4.79-17.7,3.32-26.55-2.58-15.86-12.54-29.87-26.18-37.98-13.64-8.11-30.24-10.69-46.1-7.74-22.86,4.43-43.51,20.28-53.47,41.3Z"/>
    </g>
    <polygon class="cls-7" points="137.34 351.78 126.28 353.99 124.07 365.05 121.86 353.99 110.42 351.78 121.86 349.2 124.07 338.13 126.28 349.2 137.34 351.78"/>
    <path class="cls-7" d="M262.35,133.47c0,8.11-6.64,14.75-14.75,14.75-3.32,0-6.64-1.11-8.85-2.95.74,0,1.48.37,2.58.37,6.64,0,12.17-5.53,12.17-12.17s-5.53-12.17-12.17-12.17c-.74,0-1.84,0-2.58.37,2.58-1.84,5.53-2.95,8.85-2.95,8.11-.37,14.75,6.27,14.75,14.75Z"/>
    <polygon class="cls-7" points="353.44 390.13 354.91 398.24 362.66 395.29 356.02 400.45 362.66 405.62 354.91 402.67 353.44 411.15 352.33 402.67 344.59 405.62 350.86 400.45 344.59 395.29 352.33 398.24 353.44 390.13"/>
    <polygon class="cls-7" points="197.82 88.85 198.93 97.33 207.04 94.01 200.4 99.55 207.04 104.71 198.93 101.76 197.82 109.87 196.35 101.76 188.6 104.71 195.24 99.55 188.6 94.01 196.35 97.33 197.82 88.85"/>
  </g>
</svg>